# xmcd
# 
# Track frame offsets:
#     150
#     11046
#     26376
#     36027
#     50336
#     62444
#     74559
#     92457
#     103264
#     114887
#     128247
#     139699
#     151209
#     163661
#     176329
#     189585
#     200059
#     210517
#     224788
#     240257
# 
# Disc length: 3359
# 
# Revision: 1
# Processed by: cddbd v1.5.2PL0 Copyright (c) Steve Scherf et al.
# Submitted via: fre:ac v1.0.27
# 
DISCID=130d1d14
DTITLE=Various Artist - 100 Hits - Blues [CD5]
DYEAR=0
DGENRE=Blues
TTITLE0=Jimmy Witherspoon - Spoon's Blues
TTITLE1=Blind Willie McTell - Lay Some Flowers On My Grave
TTITLE2=Magic Sam - Love Me With A Feeling
TTITLE3=Champion Jack Dupree - Junker's Blues
TTITLE4=Robert Lockwood Jr. - My Daily Wish
TTITLE5=Otis Spann - It Must Have Been The Devil
TTITLE6=Jimmy McGriff - I've Got A Woman Part I
TTITLE7=Roosevelt Sykes - Sweet Old Chicago
TTITLE8=Chuck Willis - C.C. Rider
TTITLE9=Big Walter Horton - Easy
TTITLE10=T-Bone Walker - The Hustle Is On
TTITLE11=Pee Wee Crayton - You Know Yeah
TTITLE12=Blind John Davis - The Day Will Come
TTITLE13=Jimmy Reed - The Sun Is Shining
TTITLE14=Sunnyland Slim - Going Back To Memphis
TTITLE15=Albert Collins - The Freeze
TTITLE16=Jimmy Witherspoon - Hey Mrs. Jones
TTITLE17=Big Joe Williams - Someday Baby
TTITLE18=Lonnie Johnson - You Will Need Me
TTITLE19=Roosevelt Sykes - Night Time Is The Right Time
EXTD=
EXTT0=
EXTT1=
EXTT2=
EXTT3=
EXTT4=
EXTT5=
EXTT6=
EXTT7=
EXTT8=
EXTT9=
EXTT10=
EXTT11=
EXTT12=
EXTT13=
EXTT14=
EXTT15=
EXTT16=
EXTT17=
EXTT18=
EXTT19=
PLAYORDER=
